<svg id="Workshop" xmlns="http://www.w3.org/2000/svg" viewBox="0 0 1367.9 322.12"><defs><style>.cls-1{fill:#2a4b9b;}.cls-2{fill:none;}</style></defs><title>logo-workshops-2020</title><g id="logotipo"><polygon class="cls-1" points="206.46 207.07 176.89 122.99 146.4 122.99 115.91 207.07 86.57 122.99 52.61 122.99 97.42 247.27 132.07 247.27 160.95 170.11 188.9 247.27 223.55 247.27 268.6 122.99 236.72 122.99 206.46 207.07"/><path class="cls-1" d="M456.65,312.78q-15.48-8.19-35.11-8.2t-35.23,8.2a61,61,0,0,0-24.37,22.75q-8.78,14.57-8.78,33t8.78,33a60.94,60.94,0,0,0,24.37,22.75q15.6,8.2,35.23,8.2t35.11-8.2a61.16,61.16,0,0,0,24.26-22.75q8.77-14.55,8.77-33t-8.77-33A61.23,61.23,0,0,0,456.65,312.78Zm-12.36,80.85Q435.4,403,421.54,403t-22.87-9.36q-9-9.36-9-25.06t9-25.07q9-9.35,22.87-9.35t22.75,9.35q8.9,9.36,8.9,25.07T444.29,393.63Z" transform="translate(-80.41 -183.44)"/><path class="cls-1" d="M548.13,322.83v-16.4H513.71V430.71h36V372q0-17.32,8.78-26t24.26-8.66c1.38,0,4.08.16,8.08.46V304.58q-14.33,0-25.29,4.62A40,40,0,0,0,548.13,322.83Z" transform="translate(-80.41 -183.44)"/><polygon class="cls-1" points="663.61 122.99 620.64 122.99 567.97 172.88 567.97 75.86 531.94 75.86 531.94 247.27 567.97 247.27 567.97 215.62 585.3 198.53 624.57 247.27 668.23 247.27 611.86 175.66 663.61 122.99"/><path class="cls-1" d="M854.2,413.61a32.79,32.79,0,0,0,6.93-20.56q0-13.62-7.16-21.25a37.5,37.5,0,0,0-16.86-10.51,215.22,215.22,0,0,0-25-5.43q-13.63-2.07-19.87-4.39t-6.23-8.08q0-5.08,5.77-8.32t17.33-3.23a71.7,71.7,0,0,1,35.8,9.24l12-25.64q-8.54-5.08-21.59-8a120.79,120.79,0,0,0-26.22-2.89q-17.79,0-30.84,5.08t-19.87,14.21a34,34,0,0,0-6.81,20.9q0,14.1,7.28,21.72a39,39,0,0,0,17.21,10.62,183.21,183.21,0,0,0,25.17,5.32q12.94,1.62,19.18,3.92t6.23,7.63q0,11.31-22.87,11.32a84.41,84.41,0,0,1-23.1-3.35,75.2,75.2,0,0,1-20.09-8.67l-12,25.88a72.52,72.52,0,0,0,19,8.29,51.49,51.49,0,0,1,71.24-1.93A41.22,41.22,0,0,0,854.2,413.61Z" transform="translate(-80.41 -183.44)"/><path class="cls-1" d="M958.84,304.58a62.63,62.63,0,0,0-22.17,3.81,47.92,47.92,0,0,0-17.33,11V259.3h-36V430.71h36V369.26q0-16.63,8.09-25.06t21.71-8.43q12.24,0,18.71,7.27t6.47,22.06v65.61h36V359.56q0-27.26-14.21-41.12T958.84,304.58Z" transform="translate(-80.41 -183.44)"/><path class="cls-1" d="M1138.56,312.78q-15.48-8.19-35.11-8.2t-35.23,8.2a61,61,0,0,0-24.37,22.75q-8.77,14.57-8.78,33t8.78,33a60.94,60.94,0,0,0,24.37,22.75q15.6,8.2,35.23,8.2t35.11-8.2a61.07,61.07,0,0,0,24.25-22.75q8.79-14.55,8.78-33t-8.78-33A61.14,61.14,0,0,0,1138.56,312.78Zm-12.36,80.85q-8.9,9.36-22.75,9.36t-22.87-9.36q-9-9.36-9-25.06t9-25.07q9-9.35,22.87-9.35t22.75,9.35q8.9,9.36,8.89,25.07T1126.2,393.63Z" transform="translate(-80.41 -183.44)"/><path class="cls-1" d="M1315.9,335a57.25,57.25,0,0,0-22.29-22.41,63.42,63.42,0,0,0-31.54-8q-25.63,0-39,16.17V306.43h-34.42V475.52h36v-58q13.63,15,37.42,15a63.32,63.32,0,0,0,31.54-8,57.29,57.29,0,0,0,22.29-22.4q8.08-14.43,8.08-33.61T1315.9,335Zm-37.31,58.67q-8.89,9.36-22.75,9.36t-22.76-9.36q-8.89-9.36-8.89-25.06t8.89-25.07q8.89-9.35,22.76-9.35t22.75,9.35q8.9,9.36,8.89,25.07T1278.59,393.63Z" transform="translate(-80.41 -183.44)"/></g><g id="isotipo"><path class="cls-2" d="M152.93,241.1l.88,0a15.74,15.74,0,1,0-15.73-15.73c0,.29,0,.58,0,.87A15.76,15.76,0,0,0,152.93,241.1Z" transform="translate(-80.41 -183.44)"/><path class="cls-1" d="M804.23,421.7a42,42,0,0,0-40.6,31.43H101.39V292.64l31.15-31.15a41.88,41.88,0,1,0-14.84-14.83L85.4,279a20.64,20.64,0,0,0-3.15,5c-.2.42-.38.86-.54,1.3a20.93,20.93,0,0,0-1.3,7.28v160.6a21,21,0,0,0,21,21H763.62a41.93,41.93,0,1,0,40.61-52.41Zm-650.42-212a15.74,15.74,0,0,1,0,31.47l-.88,0a15.76,15.76,0,0,1-14.83-14.84c0-.29,0-.58,0-.87A15.74,15.74,0,0,1,153.81,209.65Zm650.4,269.73a15.73,15.73,0,1,1,15.73-15.73A15.73,15.73,0,0,1,804.21,479.38Z" transform="translate(-80.41 -183.44)"/></g><path class="cls-1" d="M1359.75,427.72q-14.71-3.8-23.45-9.55l12-25.76a75.06,75.06,0,0,0,20,8.63,84,84,0,0,0,23,3.33q22.77,0,22.77-11.27c0-3.52-2.06-6.05-6.21-7.59s-10.5-2.83-19.09-3.91a182.87,182.87,0,0,1-25.07-5.29,38.87,38.87,0,0,1-17.13-10.58q-7.24-7.59-7.25-21.62a33.89,33.89,0,0,1,6.79-20.81q6.78-9.09,19.78-14.15t30.7-5.06a120.33,120.33,0,0,1,26.11,2.88q13,2.88,21.5,7.93l-12,25.53a71.42,71.42,0,0,0-35.65-9.2q-11.49,0-17.25,3.22t-5.75,8.28c0,3.84,2.08,6.52,6.21,8s10.74,3,19.79,4.37a212.53,212.53,0,0,1,24.84,5.41A37.34,37.34,0,0,1,1441.17,371q7.14,7.59,7.13,21.16a32.67,32.67,0,0,1-6.9,20.47q-6.9,9-20.12,13.92t-31.39,4.94A120.28,120.28,0,0,1,1359.75,427.72Z" transform="translate(-80.41 -183.44)"/></svg>