<svg id="Talks" xmlns="http://www.w3.org/2000/svg" viewBox="0 0 727.75 322.12"><defs><style>.cls-1{fill:#2a4b9b;}.cls-2{fill:#fff;}</style></defs><title>logo-talks-2020</title><g id="Logotipo_A-B" data-name="Logotipo A-B"><path class="cls-1" d="M444,424.69a37.19,37.19,0,0,1-13.13,5.93,66.78,66.78,0,0,1-16.39,2q-22.31,0-34.51-11.39t-12.21-33.47V336.36H348.43V308.47h19.29V278H404v30.45h31.15v27.89H404v50.91q0,7.91,4.07,12.2t11.51,4.3a23.3,23.3,0,0,0,14.64-4.65Z" transform="translate(-242.44 -182.72)"/><path class="cls-1" d="M559.49,317.65q15.57,13.83,15.57,41.72v71.36H541.12V415.16Q530.89,432.59,503,432.59q-14.42,0-25-4.88a37.15,37.15,0,0,1-16.16-13.48,35.06,35.06,0,0,1-5.58-19.52q0-17.44,13.14-27.43t40.56-10H538.8q0-11.85-7.21-18.24T510,332.64a63.2,63.2,0,0,0-19.65,3.14A51.74,51.74,0,0,0,474,344.27l-13-25.34a78.76,78.76,0,0,1,24.52-11.16,110,110,0,0,1,29.41-3.95Q543.92,303.82,559.49,317.65Zm-30.92,86.24a23.59,23.59,0,0,0,10.23-12.67V378.44H513.93q-22.32,0-22.32,14.64a13,13,0,0,0,5.47,11q5.44,4.06,15,4.07A31.55,31.55,0,0,0,528.57,403.89Z" transform="translate(-242.44 -182.72)"/><path class="cls-1" d="M607.83,258.26h36.26V430.73H607.83Z" transform="translate(-242.44 -182.72)"/><path class="cls-1" d="M731.49,381.69l-17.43,17.2v31.84H677.79V258.26h36.27v97.63l53-50.21h43.24l-52.07,53,56.72,72.05H771Z" transform="translate(-242.44 -182.72)"/><path class="cls-1" d="M838.64,428.76q-14.88-3.84-23.71-9.65l12.09-26a76,76,0,0,0,20.22,8.72,85.06,85.06,0,0,0,23.25,3.37q23,0,23-11.39c0-3.57-2.09-6.12-6.28-7.68s-10.61-2.86-19.29-4a185.65,185.65,0,0,1-25.34-5.34,39.29,39.29,0,0,1-17.31-10.69Q818,358.44,818,344.27a34.22,34.22,0,0,1,6.85-21q6.86-9.18,20-14.29t31-5.12a121.66,121.66,0,0,1,26.39,2.91q13.13,2.91,21.73,8l-12.09,25.8a72.14,72.14,0,0,0-36-9.3q-11.62,0-17.43,3.25c-3.87,2.18-5.81,5-5.81,8.37q0,5.82,6.28,8.14t20,4.41a214.62,214.62,0,0,1,25.1,5.47,37.7,37.7,0,0,1,17,10.57q7.2,7.67,7.2,21.39a33,33,0,0,1-7,20.68q-7,9.08-20.34,14.07t-31.73,5A121.36,121.36,0,0,1,838.64,428.76Z" transform="translate(-242.44 -182.72)"/></g><g id="Isotipo_B" data-name="Isotipo B"><path class="cls-2" d="M965.2,278.24l-2.35-2.35A20.06,20.06,0,0,1,965.2,278.24Z" transform="translate(-242.44 -182.72)"/><path class="cls-1" d="M968.89,284.53c-.16-.44-.34-.88-.54-1.3a20.64,20.64,0,0,0-3.15-5l-2.35-2.35-30-29.95a42,42,0,1,0-14.84,14.83l31.15,31.15V452.41H325a41.92,41.92,0,1,0,0,21H949.21a21,21,0,0,0,21-21V291.81A20.93,20.93,0,0,0,968.89,284.53Zm-72.1-44.13a15.74,15.74,0,1,1,15.73-15.73c0,.29,0,.58,0,.87a15.76,15.76,0,0,1-14.83,14.84ZM284.39,478.66a15.73,15.73,0,1,1,15.73-15.73A15.73,15.73,0,0,1,284.39,478.66Z" transform="translate(-242.44 -182.72)"/></g></svg>