<?xml version="1.0" standalone="no"?>
<!DOCTYPE svg PUBLIC "-//W3C//DTD SVG 20010904//EN"
 "http://www.w3.org/TR/2001/REC-SVG-20010904/DTD/svg10.dtd">
<svg version="1.0" xmlns="http://www.w3.org/2000/svg"
 width="3356.000000pt" height="3356.000000pt" viewBox="0 0 3356.000000 3356.000000"
 preserveAspectRatio="xMidYMid meet">
<metadata>
Created by potrace 1.11, written by Peter Selinger 2001-2013
</metadata>
<g transform="translate(0.000000,3356.000000) scale(0.100000,-0.100000)"
fill="#000000" stroke="none">
<path d="M3365 33544 c-16 -2 -79 -9 -140 -15 -431 -43 -923 -197 -1320 -415
-154 -84 -399 -248 -540 -360 -136 -108 -444 -415 -549 -547 -184 -231 -317
-443 -450 -718 -205 -424 -313 -838 -346 -1324 -8 -114 -10 -4023 -8 -13495 3
-12560 5 -13342 21 -13460 79 -572 245 -1045 524 -1491 616 -983 1643 -1608
2793 -1699 207 -17 26875 -8 26990 8 476 68 785 158 1157 337 679 327 1234
849 1603 1508 219 394 350 786 427 1282 16 103 17 481 20 5575 l3 5465 -4316
0 -4316 0 -53 -150 c-302 -865 -778 -1720 -1360 -2440 -350 -434 -826 -910
-1259 -1260 -1113 -897 -2462 -1499 -3871 -1725 -477 -76 -833 -104 -1345
-103 -357 0 -528 8 -840 39 -2444 242 -4672 1579 -6046 3629 -538 802 -916
1651 -1148 2575 -116 460 -180 854 -228 1390 -18 196 -18 1061 0 1265 96 1118
368 2098 847 3055 1255 2506 3703 4216 6477 4524 1600 178 3164 -89 4587 -785
666 -325 1217 -689 1804 -1191 183 -157 668 -642 825 -825 705 -824 1226
-1723 1562 -2690 l43 -123 4318 0 4319 0 -3 5458 c-3 5940 1 5470 -53 5762
-151 821 -612 1597 -1266 2131 -231 188 -424 313 -698 448 -364 180 -695 281
-1140 348 -109 17 -861 18 -13555 19 -7392 0 -13453 -1 -13470 -2z"/>
<path d="M16845 19853 c-592 -39 -1188 -257 -1655 -605 -797 -595 -1260 -1513
-1260 -2498 0 -665 211 -1309 603 -1840 320 -433 758 -786 1243 -1001 1331
-590 2879 -183 3754 986 325 434 524 935 596 1500 35 271 20 643 -37 943 -204
1081 -993 1989 -2044 2352 -371 127 -817 188 -1200 163z"/>
</g>
</svg>
